<svg width="51" height="51" viewBox="0 0 51 51" fill="none" xmlns="http://www.w3.org/2000/svg">
<path d="M46.5845 25.1042C46.5845 30.8094 44.3181 36.281 40.2839 40.3152C36.2497 44.3494 30.7781 46.6158 25.0729 46.6158V50.1042C38.8799 50.1042 50.0729 38.9112 50.0729 25.1042H46.5845ZM25.0729 46.6158C19.3677 46.6158 13.8961 44.3494 9.86189 40.3152C5.82768 36.281 3.56128 30.8094 3.56128 25.1042H0.0729065C0.0729065 38.9112 11.2659 50.1042 25.0729 50.1042V46.6158ZM3.56128 25.1042C3.56128 19.3989 5.82768 13.9274 9.86189 9.89317C13.8961 5.85896 19.3677 3.59256 25.0729 3.59256V0.104187C11.2659 0.104187 0.0729065 11.2972 0.0729065 25.1042H3.56128ZM33.2124 30.3367C29.6659 30.3367 26.2647 28.9279 23.7569 26.4201C21.2492 23.9124 19.8403 20.5112 19.8403 16.9647H16.352C16.352 21.4363 18.1283 25.7249 21.2903 28.8868C24.4522 32.0488 28.7408 33.8251 33.2124 33.8251V30.3367ZM44.6659 23.8693C43.4766 25.8435 41.797 27.4766 39.79 28.6098C37.7831 29.7431 35.5172 30.338 33.2124 30.3367V33.8251C36.1181 33.8267 38.9748 33.0769 41.5053 31.6487C44.0357 30.2205 46.1539 28.1623 47.6543 25.674L44.6659 23.8693ZM19.8403 16.9647C19.8393 14.6599 20.4343 12.3941 21.5676 10.3872C22.7008 8.38035 24.3337 6.70062 26.3078 5.51116L24.5031 2.52512C22.015 4.02509 19.9569 6.1429 18.5287 8.67295C17.1004 11.203 16.3506 14.0593 16.352 16.9647H19.8403ZM25.0729 3.59256C24.8371 3.587 24.613 3.48835 24.4497 3.31814C24.3498 3.22101 24.2831 3.09489 24.259 2.95768C24.2496 2.88558 24.2543 2.67628 24.5031 2.52512L26.3078 5.51116C27.4776 4.80419 27.8543 3.50884 27.7171 2.49023C27.5729 1.43209 26.7403 0.104187 25.0729 0.104187V3.59256ZM47.6543 25.674C47.5008 25.9228 47.2915 25.9274 47.2194 25.9181C47.0822 25.894 46.9561 25.8273 46.859 25.7274C46.6888 25.5641 46.5901 25.34 46.5845 25.1042H50.0729C50.0729 23.4367 48.745 22.6042 47.6869 22.46C46.6683 22.3228 45.3729 22.6995 44.6659 23.8693L47.6543 25.674Z" fill="#920395"/>
</svg>
