<svg width="44" height="44" viewBox="0 0 44 44" fill="none" xmlns="http://www.w3.org/2000/svg">
<path d="M22 8.71875C19.3732 8.71875 16.8054 9.49768 14.6213 10.957C12.4372 12.4164 10.735 14.4907 9.72972 16.9175C8.7245 19.3443 8.46149 22.0147 8.97395 24.591C9.48641 27.1674 10.7513 29.5338 12.6087 31.3913C14.4662 33.2487 16.8326 34.5136 19.409 35.0261C21.9853 35.5385 24.6557 35.2755 27.0825 34.2703C29.5093 33.265 31.5836 31.5628 33.043 29.3787C34.5023 27.1946 35.2812 24.6268 35.2812 22C35.2761 18.4792 33.8752 15.104 31.3856 12.6144C28.896 10.1248 25.5208 8.72392 22 8.71875ZM22 32.1562C19.9913 32.1562 18.0277 31.5606 16.3575 30.4446C14.6873 29.3286 13.3856 27.7424 12.6168 25.8866C11.8481 24.0308 11.647 21.9887 12.0389 20.0186C12.4308 18.0485 13.3981 16.2388 14.8184 14.8184C16.2388 13.3981 18.0485 12.4308 20.0186 12.0389C21.9887 11.647 24.0308 11.8481 25.8866 12.6168C27.7424 13.3856 29.3286 14.6873 30.4446 16.3575C31.5606 18.0277 32.1562 19.9913 32.1562 22C32.1562 24.6936 31.0862 27.2769 29.1816 29.1816C27.2769 31.0862 24.6936 32.1562 22 32.1562ZM20.4375 4.03125V2.46875C20.4375 2.05435 20.6021 1.65692 20.8951 1.3639C21.1882 1.07087 21.5856 0.90625 22 0.90625C22.4144 0.90625 22.8118 1.07087 23.1049 1.3639C23.3979 1.65692 23.5625 2.05435 23.5625 2.46875V4.03125C23.5625 4.44565 23.3979 4.84308 23.1049 5.1361C22.8118 5.42913 22.4144 5.59375 22 5.59375C21.5856 5.59375 21.1882 5.42913 20.8951 5.1361C20.6021 4.84308 20.4375 4.44565 20.4375 4.03125ZM7.07812 9.28516C6.80881 8.98793 6.66411 8.59852 6.67399 8.19755C6.68386 7.79659 6.84755 7.41477 7.13116 7.13116C7.41477 6.84755 7.79659 6.68386 8.19755 6.67399C8.59852 6.66411 8.98793 6.80881 9.28516 7.07812L10.3984 8.19141C10.6906 8.48432 10.8547 8.88118 10.8547 9.29492C10.8547 9.70867 10.6906 10.1055 10.3984 10.3984C10.1031 10.686 9.70713 10.8469 9.29492 10.8469C8.88271 10.8469 8.48678 10.686 8.19141 10.3984L7.07812 9.28516ZM5.59375 22C5.59375 22.4144 5.42913 22.8118 5.1361 23.1049C4.84308 23.3979 4.44565 23.5625 4.03125 23.5625H2.46875C2.05435 23.5625 1.65692 23.3979 1.3639 23.1049C1.07087 22.8118 0.90625 22.4144 0.90625 22C0.90625 21.5856 1.07087 21.1882 1.3639 20.8951C1.65692 20.6021 2.05435 20.4375 2.46875 20.4375H4.03125C4.44565 20.4375 4.84308 20.6021 5.1361 20.8951C5.42913 21.1882 5.59375 21.5856 5.59375 22ZM10.3984 33.6016C10.6906 33.8945 10.8547 34.2913 10.8547 34.7051C10.8547 35.1188 10.6906 35.5157 10.3984 35.8086L9.28516 36.9219C8.99349 37.2091 8.60076 37.3704 8.19141 37.3711C7.7765 37.3693 7.37806 37.2086 7.07812 36.9219C6.78592 36.629 6.62182 36.2321 6.62182 35.8184C6.62182 35.4046 6.78592 35.0078 7.07812 34.7148L8.19141 33.6016C8.48432 33.3094 8.88118 33.1453 9.29492 33.1453C9.70867 33.1453 10.1055 33.3094 10.3984 33.6016ZM23.5625 39.9688V41.5312C23.5625 41.9457 23.3979 42.3431 23.1049 42.6361C22.8118 42.9291 22.4144 43.0938 22 43.0938C21.5856 43.0938 21.1882 42.9291 20.8951 42.6361C20.6021 42.3431 20.4375 41.9457 20.4375 41.5312V39.9688C20.4375 39.5543 20.6021 39.1569 20.8951 38.8639C21.1882 38.5709 21.5856 38.4062 22 38.4062C22.4144 38.4062 22.8118 38.5709 23.1049 38.8639C23.3979 39.1569 23.5625 39.5543 23.5625 39.9688ZM36.9219 34.7148C37.2141 35.0078 37.3782 35.4046 37.3782 35.8184C37.3782 36.2321 37.2141 36.629 36.9219 36.9219C36.6219 37.2086 36.2235 37.3693 35.8086 37.3711C35.3992 37.3704 35.0065 37.2091 34.7148 36.9219L33.6016 35.8086C33.3322 35.5114 33.1876 35.122 33.1974 34.721C33.2073 34.32 33.371 33.9382 33.6546 33.6546C33.9382 33.371 34.32 33.2073 34.721 33.1974C35.122 33.1876 35.5114 33.3322 35.8086 33.6016L36.9219 34.7148ZM43.0938 22C43.0938 22.4144 42.9291 22.8118 42.6361 23.1049C42.3431 23.3979 41.9457 23.5625 41.5312 23.5625H39.9688C39.5543 23.5625 39.1569 23.3979 38.8639 23.1049C38.5709 22.8118 38.4062 22.4144 38.4062 22C38.4062 21.5856 38.5709 21.1882 38.8639 20.8951C39.1569 20.6021 39.5543 20.4375 39.9688 20.4375H41.5312C41.9457 20.4375 42.3431 20.6021 42.6361 20.8951C42.9291 21.1882 43.0938 21.5856 43.0938 22ZM33.6016 10.3984C33.3094 10.1055 33.1453 9.70867 33.1453 9.29492C33.1453 8.88118 33.3094 8.48432 33.6016 8.19141L34.7148 7.07812C34.857 6.92127 35.0295 6.79493 35.2219 6.70676C35.4143 6.6186 35.6227 6.57045 35.8343 6.56524C36.0459 6.56003 36.2563 6.59787 36.4529 6.67646C36.6494 6.75504 36.8279 6.87274 36.9776 7.02241C37.1273 7.17208 37.245 7.3506 37.3235 7.54714C37.4021 7.74367 37.44 7.95413 37.4348 8.16573C37.4296 8.37733 37.3814 8.58566 37.2932 8.77809C37.2051 8.97052 37.0787 9.14303 36.9219 9.28516L35.8086 10.3984C35.5132 10.686 35.1173 10.8469 34.7051 10.8469C34.2929 10.8469 33.8969 10.686 33.6016 10.3984Z" fill="#FFFAFA"/>
</svg>
