<svg width="126" height="135" viewBox="0 0 126 135" fill="none" xmlns="http://www.w3.org/2000/svg">
<path d="M45 87.75L52.875 79.7344L40.6406 67.5L52.875 55.2656L45 47.25L24.75 67.5L45 87.75ZM72 87.75L92.25 67.5L72 47.25L64.125 55.2656L76.3594 67.5L64.125 79.7344L72 87.75ZM19.125 118.125C16.0313 118.125 13.3819 117.023 11.1769 114.818C8.97188 112.613 7.87126 109.965 7.87501 106.875V28.125C7.87501 25.0313 8.97751 22.3819 11.1825 20.1769C13.3875 17.9719 16.035 16.8713 19.125 16.875H97.875C100.969 16.875 103.618 17.9775 105.823 20.1825C108.028 22.3875 109.129 25.035 109.125 28.125V106.875C109.125 109.969 108.023 112.618 105.818 114.823C103.613 117.028 100.965 118.129 97.875 118.125H19.125ZM19.125 106.875H97.875V28.125H19.125V106.875Z" fill="#F8F8F8"/>
</svg>
