<svg width="50" height="50" viewBox="0 0 50 50" fill="none" xmlns="http://www.w3.org/2000/svg">
<path d="M25 11.7188C22.3732 11.7188 19.8054 12.4977 17.6213 13.957C15.4372 15.4164 13.735 17.4907 12.7297 19.9175C11.7245 22.3443 11.4615 25.0147 11.9739 27.591C12.4864 30.1674 13.7513 32.5338 15.6087 34.3913C17.4662 36.2487 19.8326 37.5136 22.409 38.0261C24.9853 38.5385 27.6557 38.2755 30.0825 37.2703C32.5093 36.265 34.5836 34.5628 36.043 32.3787C37.5023 30.1946 38.2812 27.6268 38.2812 25C38.2761 21.4792 36.8752 18.104 34.3856 15.6144C31.896 13.1248 28.5208 11.7239 25 11.7188ZM25 35.1562C22.9913 35.1562 21.0277 34.5606 19.3575 33.4446C17.6873 32.3286 16.3856 30.7424 15.6168 28.8866C14.8481 27.0308 14.647 24.9887 15.0389 23.0186C15.4308 21.0485 16.3981 19.2388 17.8184 17.8184C19.2388 16.3981 21.0485 15.4308 23.0186 15.0389C24.9887 14.647 27.0308 14.8481 28.8866 15.6168C30.7424 16.3856 32.3286 17.6873 33.4446 19.3575C34.5606 21.0277 35.1562 22.9913 35.1562 25C35.1562 27.6936 34.0862 30.2769 32.1816 32.1816C30.2769 34.0862 27.6936 35.1562 25 35.1562ZM23.4375 7.03125V5.46875C23.4375 5.05435 23.6021 4.65692 23.8951 4.3639C24.1882 4.07087 24.5856 3.90625 25 3.90625C25.4144 3.90625 25.8118 4.07087 26.1049 4.3639C26.3979 4.65692 26.5625 5.05435 26.5625 5.46875V7.03125C26.5625 7.44565 26.3979 7.84308 26.1049 8.1361C25.8118 8.42913 25.4144 8.59375 25 8.59375C24.5856 8.59375 24.1882 8.42913 23.8951 8.1361C23.6021 7.84308 23.4375 7.44565 23.4375 7.03125ZM10.0781 12.2852C9.80881 11.9879 9.66411 11.5985 9.67399 11.1976C9.68386 10.7966 9.84755 10.4148 10.1312 10.1312C10.4148 9.84755 10.7966 9.68386 11.1976 9.67399C11.5985 9.66411 11.9879 9.80881 12.2852 10.0781L13.3984 11.1914C13.6906 11.4843 13.8547 11.8812 13.8547 12.2949C13.8547 12.7087 13.6906 13.1055 13.3984 13.3984C13.1031 13.686 12.7071 13.8469 12.2949 13.8469C11.8827 13.8469 11.4868 13.686 11.1914 13.3984L10.0781 12.2852ZM8.59375 25C8.59375 25.4144 8.42913 25.8118 8.1361 26.1049C7.84308 26.3979 7.44565 26.5625 7.03125 26.5625H5.46875C5.05435 26.5625 4.65692 26.3979 4.3639 26.1049C4.07087 25.8118 3.90625 25.4144 3.90625 25C3.90625 24.5856 4.07087 24.1882 4.3639 23.8951C4.65692 23.6021 5.05435 23.4375 5.46875 23.4375H7.03125C7.44565 23.4375 7.84308 23.6021 8.1361 23.8951C8.42913 24.1882 8.59375 24.5856 8.59375 25ZM13.3984 36.6016C13.6906 36.8945 13.8547 37.2913 13.8547 37.7051C13.8547 38.1188 13.6906 38.5157 13.3984 38.8086L12.2852 39.9219C11.9935 40.2091 11.6008 40.3704 11.1914 40.3711C10.7765 40.3693 10.3781 40.2086 10.0781 39.9219C9.78592 39.629 9.62182 39.2321 9.62182 38.8184C9.62182 38.4046 9.78592 38.0078 10.0781 37.7148L11.1914 36.6016C11.4843 36.3094 11.8812 36.1453 12.2949 36.1453C12.7087 36.1453 13.1055 36.3094 13.3984 36.6016ZM26.5625 42.9688V44.5312C26.5625 44.9457 26.3979 45.3431 26.1049 45.6361C25.8118 45.9291 25.4144 46.0938 25 46.0938C24.5856 46.0938 24.1882 45.9291 23.8951 45.6361C23.6021 45.3431 23.4375 44.9457 23.4375 44.5312V42.9688C23.4375 42.5543 23.6021 42.1569 23.8951 41.8639C24.1882 41.5709 24.5856 41.4062 25 41.4062C25.4144 41.4062 25.8118 41.5709 26.1049 41.8639C26.3979 42.1569 26.5625 42.5543 26.5625 42.9688ZM39.9219 37.7148C40.2141 38.0078 40.3782 38.4046 40.3782 38.8184C40.3782 39.2321 40.2141 39.629 39.9219 39.9219C39.6219 40.2086 39.2235 40.3693 38.8086 40.3711C38.3992 40.3704 38.0065 40.2091 37.7148 39.9219L36.6016 38.8086C36.3322 38.5114 36.1876 38.122 36.1974 37.721C36.2073 37.32 36.371 36.9382 36.6546 36.6546C36.9382 36.371 37.32 36.2073 37.721 36.1974C38.122 36.1876 38.5114 36.3322 38.8086 36.6016L39.9219 37.7148ZM46.0938 25C46.0938 25.4144 45.9291 25.8118 45.6361 26.1049C45.3431 26.3979 44.9457 26.5625 44.5312 26.5625H42.9688C42.5543 26.5625 42.1569 26.3979 41.8639 26.1049C41.5709 25.8118 41.4062 25.4144 41.4062 25C41.4062 24.5856 41.5709 24.1882 41.8639 23.8951C42.1569 23.6021 42.5543 23.4375 42.9688 23.4375H44.5312C44.9457 23.4375 45.3431 23.6021 45.6361 23.8951C45.9291 24.1882 46.0938 24.5856 46.0938 25ZM36.6016 13.3984C36.3094 13.1055 36.1453 12.7087 36.1453 12.2949C36.1453 11.8812 36.3094 11.4843 36.6016 11.1914L37.7148 10.0781C37.857 9.92127 38.0295 9.79493 38.2219 9.70676C38.4143 9.6186 38.6227 9.57045 38.8343 9.56524C39.0459 9.56003 39.2563 9.59787 39.4529 9.67646C39.6494 9.75504 39.8279 9.87274 39.9776 10.0224C40.1273 10.1721 40.245 10.3506 40.3235 10.5471C40.4021 10.7437 40.44 10.9541 40.4348 11.1657C40.4296 11.3773 40.3814 11.5857 40.2932 11.7781C40.2051 11.9705 40.0787 12.143 39.9219 12.2852L38.8086 13.3984C38.5132 13.686 38.1173 13.8469 37.7051 13.8469C37.2929 13.8469 36.8969 13.686 36.6016 13.3984Z" fill="#6A006C"/>
</svg>
