<?xml version="1.0" standalone="no"?>
<!DOCTYPE svg PUBLIC "-//W3C//DTD SVG 20010904//EN"
 "http://www.w3.org/TR/2001/REC-SVG-20010904/DTD/svg10.dtd">
<svg version="1.0" xmlns="http://www.w3.org/2000/svg"
 width="1124.000000pt" height="1219.000000pt" viewBox="0 0 1124.000000 1219.000000"
 preserveAspectRatio="xMidYMid meet">

<g transform="translate(0.000000,1219.000000) scale(0.100000,-0.100000)"
fill="#000000" stroke="none">
<path d="M5935 12103 c-27 -2 -55 -9 -61 -14 -6 -5 -31 -9 -55 -9 -24 0 -105
-4 -179 -8 -110 -7 -142 -13 -175 -31 -33 -18 -49 -21 -94 -15 -30 4 -73 15
-95 25 -64 28 -117 9 -120 -44 -1 -15 -8 -23 -23 -25 -13 -2 -23 -8 -23 -13 0
-12 -57 -12 -65 1 -3 6 -25 10 -48 9 -35 -1 -38 -2 -17 -8 24 -7 24 -8 -10
-15 -58 -12 -118 -17 -265 -20 -152 -3 -178 -6 -275 -31 -36 -9 -85 -20 -109
-26 -25 -5 -56 -17 -70 -26 -40 -27 -65 -39 -94 -47 -15 -3 -51 -22 -80 -40
-51 -33 -68 -47 -134 -107 -18 -16 -37 -29 -43 -29 -5 0 -10 -4 -10 -9 0 -5
-14 -14 -30 -20 -17 -5 -45 -21 -63 -33 -41 -30 -76 -48 -91 -48 -7 0 -25 -13
-41 -30 -16 -16 -35 -30 -42 -30 -7 0 -19 -12 -27 -27 -8 -16 -26 -38 -40 -50
-14 -13 -26 -29 -26 -36 0 -19 -71 -84 -100 -92 -33 -9 -94 -74 -97 -103 -3
-41 -37 -86 -78 -106 -22 -11 -48 -28 -57 -39 -9 -10 -36 -21 -60 -24 -37 -5
-51 -15 -102 -70 -32 -35 -97 -98 -145 -140 -90 -80 -118 -116 -133 -171 -5
-17 -21 -43 -35 -57 -25 -22 -26 -26 -13 -49 12 -23 11 -32 -13 -80 -15 -29
-45 -69 -67 -87 -22 -18 -40 -42 -40 -52 0 -10 -14 -35 -31 -57 -19 -24 -33
-54 -36 -81 -6 -47 -51 -118 -63 -99 -3 6 -17 -12 -30 -40 -14 -29 -36 -58
-52 -68 -15 -9 -28 -21 -28 -27 0 -6 -32 -45 -70 -86 -39 -41 -78 -89 -87
-106 -8 -18 -21 -33 -29 -33 -7 0 -28 -19 -46 -41 -18 -23 -54 -65 -79 -93
-25 -28 -67 -82 -92 -121 -26 -38 -50 -74 -55 -80 -4 -5 -24 -32 -44 -60 -20
-27 -57 -70 -82 -95 -25 -24 -46 -50 -46 -57 0 -8 -7 -16 -15 -19 -8 -4 -15
-14 -15 -24 0 -10 -6 -20 -14 -23 -25 -10 -88 -116 -116 -195 -45 -129 -62
-165 -96 -207 -30 -38 -52 -76 -89 -154 -10 -20 -14 -44 -10 -61 7 -32 -27
-95 -64 -121 -15 -10 -24 -31 -31 -71 -11 -71 -24 -96 -54 -104 -21 -5 -26
-15 -36 -72 -6 -36 -18 -78 -25 -92 -8 -14 -28 -56 -45 -95 -17 -38 -38 -77
-46 -87 -13 -13 -15 -28 -9 -64 6 -41 4 -49 -19 -73 -24 -25 -56 -131 -56
-185 0 -13 -6 -29 -14 -35 -8 -7 -17 -35 -21 -64 -4 -29 -13 -62 -21 -74 -19
-30 -44 -103 -44 -131 0 -26 -63 -129 -165 -270 -25 -34 -45 -66 -45 -70 0 -4
-25 -33 -56 -65 -59 -62 -78 -97 -88 -162 -8 -49 -28 -108 -39 -116 -5 -3 -8
-9 -7 -13 4 -14 -13 -72 -25 -86 -7 -8 -16 -25 -19 -37 -4 -13 -14 -23 -23
-23 -9 0 -13 -6 -10 -14 3 -7 -2 -24 -10 -36 -9 -13 -17 -44 -18 -70 -2 -25
-11 -64 -22 -85 -11 -22 -18 -45 -16 -52 2 -6 -7 -44 -20 -85 -14 -40 -34
-104 -46 -141 -12 -37 -33 -91 -47 -119 -15 -30 -27 -72 -29 -107 -9 -133 -17
-207 -24 -216 -9 -13 -65 -157 -81 -210 -7 -22 -17 -49 -23 -60 -6 -11 -23
-44 -39 -72 l-28 -53 0 -2510 0 -2510 3125 0 c1952 0 3125 4 3125 9 0 6 14 18
30 28 17 9 30 23 30 30 0 7 10 13 23 13 31 0 46 12 49 40 3 26 15 40 35 40 7
0 10 -7 7 -15 -4 -8 -1 -15 5 -15 16 0 31 43 20 54 -9 10 17 46 33 46 13 0 38
-26 38 -40 0 -6 5 -8 10 -5 6 3 13 -1 16 -9 4 -9 18 -16 34 -16 15 0 35 -9 46
-21 10 -12 54 -48 97 -80 l78 -59 2170 0 c1193 0 2169 3 2169 8 -1 17 -29 85
-30 69 0 -28 -36 0 -62 50 -14 26 -30 43 -40 43 -10 0 -18 1 -18 3 0 1 4 17 9
35 6 21 6 32 0 32 -6 0 -7 5 -4 10 10 16 -5 50 -21 50 -8 0 -14 -4 -14 -10 0
-25 -30 -6 -56 35 -15 25 -31 45 -36 45 -4 0 -6 12 -4 28 2 15 1 21 -1 14 -7
-20 -23 -14 -35 13 -6 14 -14 25 -18 25 -13 0 -33 59 -27 79 6 26 -16 57 -33
46 -8 -5 -10 -20 -7 -40 9 -52 -4 -49 -33 8 -53 103 -110 283 -95 307 3 5 -1
10 -9 10 -12 0 -16 11 -16 45 0 27 -5 45 -11 45 -8 0 -10 12 -6 35 4 22 0 46
-10 66 -9 17 -18 52 -21 78 -3 25 -11 52 -19 59 -8 9 -13 39 -13 88 0 41 -4
74 -8 74 -5 0 -17 38 -27 84 -10 47 -22 83 -27 80 -4 -3 -8 2 -8 10 0 8 6 19
14 23 8 4 16 19 18 33 3 23 0 25 -35 24 -42 -1 -49 12 -51 97 -1 26 -5 44 -10
41 -5 -3 -7 16 -3 46 3 30 2 54 -4 58 -5 3 -7 15 -3 26 5 17 3 20 -10 15 -13
-5 -16 1 -16 36 -1 41 -1 42 -15 17 -22 -39 -18 -2 11 99 6 18 74 -57 74 -80
0 -10 4 -20 9 -23 11 -7 19 46 10 70 -7 22 -1 44 12 44 5 0 9 -7 9 -15 0 -8
10 -19 22 -26 18 -10 20 -9 14 6 -5 14 -2 16 11 10 10 -4 23 -8 30 -8 6 0 9
-6 6 -14 -3 -8 0 -11 9 -8 23 9 40 -21 40 -65 -1 -45 15 -55 20 -12 2 22 8 28
36 30 29 3 33 0 38 -27 7 -33 14 -37 31 -20 16 16 45 -3 114 -76 33 -35 72
-66 87 -70 23 -6 83 -47 119 -82 7 -6 29 -17 48 -23 19 -6 35 -18 35 -26 0 -8
9 -14 20 -14 10 0 35 -13 53 -30 19 -16 40 -30 46 -30 7 0 11 27 11 76 0 75 0
76 -37 109 -21 19 -49 37 -61 40 -13 3 -45 27 -71 53 -27 27 -53 46 -60 44 -7
-2 -17 10 -24 27 -11 31 -27 42 -27 19 0 -9 -4 -8 -10 2 -5 8 -10 12 -10 8 0
-3 -26 19 -57 51 -32 32 -71 61 -88 65 -33 8 -75 43 -75 62 0 16 -29 39 -49
39 -9 0 -16 7 -16 15 -1 19 -14 40 -25 40 -5 0 -7 -7 -4 -15 5 -11 2 -13 -10
-9 -9 3 -19 17 -22 30 -5 20 -9 22 -26 13 -11 -6 -21 -9 -23 -7 -24 26 -55 87
-55 107 -1 25 -1 25 -16 6 -13 -17 -16 -18 -24 -5 -8 13 -10 13 -10 1 0 -29
-58 45 -65 83 -6 27 -10 34 -17 24 -6 -9 -8 -4 -7 17 3 48 0 67 -11 60 -5 -3
-10 -18 -11 -33 -1 -25 -2 -24 -11 7 -7 24 -6 41 2 56 6 12 10 32 9 46 -5 52
-1 61 22 48 26 -13 38 -3 49 43 7 30 9 31 15 11 8 -26 25 -21 25 8 0 10 6 18
13 17 7 -2 16 14 21 40 6 23 13 42 18 42 4 0 8 8 8 19 0 23 14 34 62 48 27 8
38 8 41 -1 2 -6 3 -3 1 7 -2 13 7 22 26 29 20 7 27 14 23 26 -5 11 -2 14 10 9
8 -3 21 1 28 9 51 62 234 60 297 -3 7 -7 32 -18 55 -24 23 -6 47 -14 52 -17 6
-4 15 -7 21 -8 23 -4 84 -37 84 -45 0 -5 9 -9 20 -9 18 0 20 7 20 73 l0 73
-47 13 c-27 8 -52 17 -58 21 -5 3 -32 15 -60 25 -64 24 -154 72 -182 99 -15
14 -23 33 -23 57 0 37 19 89 33 89 11 0 46 42 47 54 0 5 18 32 39 60 39 50 66
117 42 102 -6 -4 -11 -13 -11 -20 0 -17 -39 -65 -40 -49 0 6 5 15 10 18 6 3
10 10 10 16 0 17 -26 9 -48 -16 -21 -24 -42 -30 -85 -25 -11 1 -26 -8 -34 -19
-20 -30 -31 -26 -35 12 -2 19 -8 31 -15 29 -7 -1 -13 2 -13 8 0 6 -9 6 -25 0
-14 -5 -25 -6 -25 -2 0 4 -5 0 -11 -8 -8 -12 -10 -12 -8 5 5 60 -1 86 -18 83
-10 -2 -21 -16 -24 -33 -5 -23 -7 -25 -8 -7 0 12 -5 22 -11 22 -5 0 -10 10
-10 23 0 12 -14 35 -31 51 -26 25 -30 35 -26 65 3 20 3 30 0 24 -9 -24 -33 14
-39 61 -4 25 -13 51 -20 57 -9 7 -14 33 -14 73 0 33 -11 102 -24 151 -13 50
-29 110 -34 135 -15 69 -55 172 -74 192 -11 10 -18 33 -18 54 0 36 -25 92 -47
107 -6 4 -17 24 -24 45 -6 20 -20 48 -30 61 -11 13 -19 33 -19 45 0 12 -9 27
-21 34 -12 8 -18 9 -14 3 3 -7 -2 -11 -14 -11 -19 0 -21 6 -21 59 0 40 -5 65
-15 75 -8 8 -15 31 -15 50 0 20 -4 36 -9 36 -14 0 -29 49 -41 135 -20 140 -22
150 -31 161 -5 6 -10 27 -11 47 -2 20 -5 37 -8 37 -7 0 -30 61 -30 80 0 20
-47 115 -64 129 -8 7 -18 38 -22 69 -8 65 -26 107 -54 125 -14 8 -20 23 -20
47 0 55 -17 103 -44 123 -42 32 -54 100 -66 382 -6 143 -13 303 -14 355 -3 94
-11 126 -50 183 -17 25 -19 53 -22 330 -3 249 -6 308 -18 333 -9 16 -16 36
-16 45 0 9 -9 36 -20 60 -12 28 -20 66 -20 102 0 54 -5 67 -55 148 -48 77 -55
96 -55 139 0 35 -4 50 -13 50 -14 0 -57 44 -57 59 0 4 -7 22 -15 39 -9 17 -24
76 -35 131 -10 55 -24 109 -30 120 -12 23 -3 102 13 113 7 4 7 11 0 20 -15 19
-35 103 -44 178 -3 36 -16 94 -29 130 -12 36 -31 97 -42 135 -28 96 -40 119
-50 103 -6 -10 -8 -9 -8 3 0 9 -9 28 -20 42 -11 14 -20 36 -20 49 0 12 -7 36
-15 52 -8 15 -15 37 -15 47 0 10 -4 20 -9 23 -5 3 -12 18 -15 33 -4 16 -15 46
-26 68 -10 22 -24 65 -31 95 -7 30 -14 49 -17 42 -7 -21 -42 17 -42 45 0 14 4
21 10 18 12 -8 13 27 1 41 -4 5 -13 27 -19 49 -41 159 -54 201 -66 220 -7 11
-17 36 -21 55 -9 47 -71 212 -94 252 -10 18 -21 49 -25 69 -3 21 -15 48 -26
62 -11 14 -20 32 -20 40 0 9 -4 17 -9 19 -5 2 -26 35 -46 73 -21 39 -55 95
-77 125 -21 30 -44 63 -51 73 -18 28 -94 127 -130 171 -18 21 -36 47 -41 57
-5 11 -15 19 -22 19 -8 0 -16 10 -19 23 -3 12 -21 32 -40 45 -19 12 -35 29
-35 37 0 8 -7 15 -15 15 -7 0 -18 6 -22 13 -4 8 -33 34 -63 58 -30 24 -83 71
-117 104 -34 33 -74 68 -87 78 -24 16 -43 46 -101 162 -48 96 -194 228 -308
279 -29 13 -61 33 -73 44 -11 11 -30 23 -41 26 -12 4 -37 19 -57 34 -68 51
-121 79 -176 92 -30 7 -98 25 -150 40 -52 16 -113 31 -135 35 -22 4 -47 12
-55 19 -21 18 -50 24 -158 36 -51 5 -137 21 -190 34 -53 14 -122 25 -152 25
-30 0 -75 8 -100 17 -25 9 -76 20 -115 24 -38 5 -79 10 -90 13 -11 2 -42 2
-70 0z m435 -380 c0 -2 -5 -13 -10 -24 -9 -16 -14 -17 -33 -8 -32 17 -32 18
-12 33 16 12 55 11 55 -1z m65 -37 c-28 -6 -39 -5 -46 5 -15 24 -10 26 37 15
l46 -11 -37 -9z m-1714 -29 c-6 -6 -11 -19 -11 -29 0 -23 -55 -25 -64 -3 -11
29 4 43 46 43 31 1 38 -2 29 -11z m1478 -40 c6 -8 8 -17 4 -20 -10 -11 -51 -8
-58 3 -17 27 33 42 54 17z m-954 -39 c4 4 6 0 3 -8 -5 -14 -55 -17 -68 -4 -10
11 25 22 41 14 9 -5 20 -6 24 -2z m-80 -24 c13 -5 14 -8 3 -15 -19 -12 -25
-11 -32 6 -6 16 3 19 29 9z m723 -25 c2 -5 10 -9 18 -9 8 0 14 -9 14 -20 0
-20 0 -20 -35 0 -19 11 -35 17 -35 14 0 -2 -9 0 -20 6 -11 6 -20 16 -20 21 0
14 73 2 78 -12z m-1188 -23 c0 -5 -7 -3 -15 4 -8 7 -12 17 -9 22 7 10 24 -9
24 -26z m-40 -46 c0 -16 -4 -30 -10 -30 -5 0 -10 -9 -10 -20 0 -13 -7 -20 -20
-20 -10 0 -33 -13 -50 -30 -32 -31 -70 -46 -95 -36 -13 5 -13 10 2 41 14 30
22 35 50 35 33 0 47 22 21 34 -10 5 -10 7 0 12 6 3 12 13 12 21 0 12 7 14 30
10 16 -4 32 -2 35 3 14 22 35 9 35 -20z m175 -20 c3 -5 -1 -10 -10 -10 -9 0
-13 5 -10 10 3 6 8 10 10 10 2 0 7 -4 10 -10z m-415 -249 c0 -6 -5 -13 -11
-17 -8 -4 -7 -9 2 -15 11 -7 10 -9 -3 -9 -10 0 -18 -7 -18 -15 0 -8 -7 -15
-15 -15 -8 0 -15 -5 -15 -11 0 -18 -35 -56 -48 -51 -6 2 -12 -1 -12 -7 0 -6
-11 -11 -25 -11 -32 0 -32 10 2 46 15 16 26 36 25 46 -2 9 2 19 8 23 5 3 10 1
10 -4 0 -19 15 -12 25 11 6 12 21 25 35 29 36 10 40 10 40 0z m-187 -158 c-7
-2 -19 -2 -25 0 -7 3 -2 5 12 5 14 0 19 -2 13 -5z m850 -497 c-9 -5 -19 -3
-26 4 -9 10 -9 14 1 17 6 3 12 17 13 31 0 25 1 25 13 -8 11 -30 11 -36 -1 -44z
m-183 -166 c0 -5 -5 -10 -11 -10 -5 0 -7 5 -4 10 3 6 8 10 11 10 2 0 4 -4 4
-10z m1055 -92 c11 0 32 3 48 6 23 5 27 3 27 -14 0 -17 7 -20 45 -20 25 0 45
-3 45 -8 0 -4 20 -6 45 -4 35 3 45 1 43 -9 -2 -10 10 -15 37 -17 22 -2 44 -7
50 -11 5 -5 24 -7 40 -6 17 1 42 -4 57 -12 32 -15 142 -18 118 -3 -8 5 -11 10
-6 10 5 0 17 -7 27 -16 10 -9 38 -17 63 -19 24 -1 58 -10 75 -18 17 -8 50 -18
73 -22 75 -13 81 -14 87 -24 3 -5 33 -14 66 -21 33 -7 70 -19 82 -27 13 -7 26
-14 30 -14 5 0 15 -6 23 -13 8 -6 29 -18 45 -26 27 -13 57 -37 118 -95 12 -11
31 -25 42 -30 11 -6 31 -27 44 -48 13 -20 32 -37 42 -37 9 0 20 -8 24 -17 3
-10 5 -18 3 -18 -2 0 7 -14 20 -32 12 -17 22 -36 22 -42 0 -7 11 -24 25 -39
14 -15 25 -38 25 -52 l-1 -25 -17 28 c-16 26 -32 31 -39 11 -2 -6 8 -24 22
-40 14 -16 32 -44 41 -63 9 -19 25 -44 35 -55 17 -17 19 -18 19 -3 0 9 7 17
16 17 22 0 55 -20 49 -29 -2 -5 7 -17 20 -27 26 -19 33 -44 14 -44 -8 0 -8 -4
-2 -12 6 -7 13 -39 16 -72 4 -43 11 -62 26 -73 12 -8 21 -23 21 -34 0 -21 16
-26 23 -6 3 6 6 0 6 -15 1 -15 12 -38 25 -51 29 -29 37 -77 24 -141 -8 -38 -7
-51 3 -58 11 -7 9 -8 -5 -4 -13 5 -17 2 -13 -8 17 -44 27 -100 21 -115 -6 -12
-9 -9 -14 14 -6 22 -8 13 -9 -37 -1 -41 -5 -68 -12 -68 -7 0 -8 -11 -4 -30 11
-51 -12 -34 -31 23 -24 74 -30 39 -8 -50 14 -58 16 -76 6 -82 -18 -11 -4 -91
15 -91 12 0 14 -8 9 -37 -4 -27 -3 -32 4 -18 8 18 9 17 9 -7 1 -20 -3 -26 -14
-22 -9 4 -15 0 -15 -10 0 -9 4 -16 10 -16 5 0 7 -13 4 -29 -4 -18 0 -41 9 -58
25 -46 51 -192 51 -290 0 -51 4 -93 8 -93 5 0 8 -9 8 -20 0 -11 -4 -20 -9 -20
-5 0 -12 -20 -15 -45 -4 -25 -11 -45 -17 -45 -5 0 -9 -9 -9 -20 0 -30 -40 -27
-41 3 -2 22 -2 22 -6 -2 -3 -13 -13 -26 -24 -28 -21 -6 -26 -39 -6 -46 6 -2 9
-7 6 -11 -4 -4 -31 16 -60 43 -30 28 -57 51 -61 51 -4 0 -24 11 -44 25 -20 14
-44 25 -54 25 -9 0 -25 9 -36 21 -26 29 -74 53 -74 38 0 -7 -10 -3 -23 9 -13
12 -32 22 -43 22 -11 0 -25 5 -32 12 -6 6 -15 9 -19 5 -3 -4 2 -14 13 -22 18
-14 17 -14 -10 -5 -21 8 -31 8 -36 0 -5 -8 -24 -7 -66 4 -61 16 -97 13 -124
-9 -12 -11 -28 -9 -85 5 -88 23 -123 24 -192 4 -30 -9 -68 -13 -84 -10 -15 3
-30 2 -33 -3 -3 -4 -30 -6 -61 -3 -46 4 -55 2 -55 -12 0 -9 -8 -16 -20 -16
-11 0 -20 4 -20 9 0 12 -183 9 -191 -3 -4 -5 -38 -10 -75 -12 -38 -2 -82 -6
-97 -10 -20 -4 -34 0 -48 12 -18 16 -19 16 -19 -4 0 -29 -20 -39 -27 -13 -4
17 -8 19 -19 10 -8 -6 -14 -20 -14 -30 0 -9 -6 -24 -12 -31 -14 -14 -19 -98
-7 -98 4 0 10 -8 12 -17 2 -10 3 -5 1 10 l-4 28 26 -31 c21 -24 29 -28 40 -19
16 13 19 -2 4 -17 -7 -7 -2 -18 16 -35 15 -13 24 -19 21 -13 -9 15 29 22 151
29 107 6 214 24 223 37 3 4 27 11 55 14 27 3 73 15 102 25 29 10 60 19 70 18
11 -1 9 -4 -8 -10 -22 -8 -21 -8 5 -3 40 8 201 23 349 32 80 5 131 3 157 -4
21 -6 49 -9 62 -7 14 3 28 0 31 -6 4 -6 15 -11 25 -11 10 0 30 -11 44 -24 15
-14 35 -27 46 -31 10 -3 22 -12 25 -20 3 -8 15 -15 26 -15 12 0 18 -4 15 -10
-3 -5 -2 -10 3 -10 18 0 34 -59 28 -95 -7 -33 -9 -35 -42 -33 -20 1 -38 6 -40
10 -7 11 -134 10 -134 0 0 -7 -61 -23 -137 -36 -13 -2 -29 -8 -36 -14 -10 -9
-17 -6 -30 8 -9 11 -17 27 -17 36 0 13 -3 14 -15 4 -8 -6 -19 -9 -24 -6 -5 4
-14 -1 -19 -10 -8 -15 -11 -15 -30 4 -12 12 -24 17 -27 12 -4 -6 -24 -10 -45
-10 -28 0 -43 6 -53 20 -13 19 -15 19 -21 4 -5 -12 -10 -14 -19 -5 -11 8 -16
5 -25 -14 -7 -14 -17 -36 -24 -50 -18 -39 -52 -30 -54 13 -2 42 -14 55 -15 16
0 -25 -2 -26 -8 -9 -5 11 -7 23 -4 28 2 4 0 7 -6 7 -5 0 -11 -10 -13 -21 -3
-19 -6 -18 -30 16 -23 33 -27 35 -32 17 -9 -26 -75 -37 -93 -15 -8 10 -13 11
-18 3 -6 -9 -10 -9 -17 1 -6 10 -8 5 -7 -16 2 -48 0 -49 -26 -21 -13 14 -29
26 -35 26 -18 0 -11 -59 10 -80 28 -28 25 -45 -12 -71 -18 -13 -39 -29 -46
-36 -7 -7 -16 -13 -20 -13 -4 0 -13 -4 -20 -9 -11 -7 -11 -12 -1 -28 7 -13 9
-28 4 -39 -7 -16 -10 -13 -18 18 l-10 37 -48 -37 c-46 -36 -74 -74 -62 -86 3
-3 11 -2 17 4 7 5 27 5 51 0 21 -5 42 -7 47 -4 4 3 16 -1 27 -8 23 -14 41 -4
23 14 -7 7 -8 17 -2 29 7 11 7 20 0 24 -12 7 18 72 37 79 7 3 21 -3 31 -14 18
-19 19 -19 39 22 l22 41 9 -34 c5 -19 14 -33 19 -32 6 1 16 -17 23 -40 25 -79
34 -93 98 -149 26 -23 31 -24 37 -11 5 14 8 13 21 -5 9 -13 26 -22 40 -22 19
0 24 -4 20 -17 -6 -21 -9 -70 -6 -98 2 -17 3 -16 10 5 4 14 8 40 9 58 2 50 51
36 51 -15 0 -15 5 -21 14 -17 10 4 16 -5 22 -28 4 -20 9 -27 12 -18 8 24 24
30 46 17 12 -6 27 -10 35 -8 7 1 10 -2 7 -7 -3 -5 8 -15 24 -22 16 -7 35 -18
41 -26 20 -25 30 -15 24 24 -5 32 -4 35 7 21 7 -9 29 -20 47 -24 19 -4 45 -20
58 -36 22 -26 28 -28 91 -26 86 3 159 35 168 75 9 38 24 53 48 51 35 -2 47 1
42 10 -3 5 27 10 67 12 64 4 75 7 104 35 29 27 40 31 98 33 62 2 65 1 66 -21
1 -23 1 -23 9 2 l8 25 2 -25 2 -25 8 25 c8 24 8 24 9 3 1 -13 7 -23 14 -23 17
0 45 -259 29 -269 -5 -3 -12 -33 -15 -66 -4 -38 -12 -64 -22 -71 -9 -7 -18
-30 -19 -52 -2 -22 -11 -50 -20 -63 -9 -13 -16 -31 -16 -41 0 -10 -4 -18 -10
-18 -5 0 -10 -9 -10 -20 0 -11 -7 -23 -15 -26 -8 -4 -15 -15 -15 -26 0 -11 -9
-31 -19 -44 -11 -14 -22 -43 -26 -65 -4 -22 -13 -43 -21 -46 -8 -3 -14 -14
-14 -24 0 -10 -4 -19 -8 -19 -10 0 -32 -103 -32 -148 0 -28 -3 -32 -26 -32
-24 0 -25 -2 -18 -45 4 -30 3 -45 -5 -45 -6 0 -12 10 -12 23 -1 13 -6 4 -12
-20 -5 -24 -15 -43 -22 -43 -7 0 -16 -19 -19 -45 -6 -34 -12 -45 -25 -45 -13
0 -20 -15 -30 -65 -13 -66 -35 -87 -44 -42 -3 14 -5 9 -6 -14 0 -20 -4 -52 -8
-70 -7 -33 -7 -33 -15 -9 -5 16 -6 8 -2 -22 3 -31 1 -48 -5 -48 -6 0 -11 -9
-11 -20 0 -30 -47 -28 -53 3 -3 14 -5 9 -6 -14 -2 -60 -13 -99 -27 -99 -10 0
-14 -14 -15 -47 -1 -39 -2 -43 -9 -23 l-8 25 -2 -25 -2 -25 -8 25 c-8 24 -8
24 -9 3 -1 -13 -5 -23 -11 -23 -5 0 -10 -9 -10 -19 0 -10 -7 -21 -15 -25 -8
-3 -15 -15 -15 -26 0 -27 -28 -26 -33 3 -2 12 -5 -9 -7 -48 -1 -52 -4 -63 -10
-45 -8 24 -8 24 -9 3 -1 -16 -7 -23 -22 -23 -19 0 -21 -4 -16 -48 4 -32 3 -39
-3 -22 l-8 25 -2 -25 -2 -25 -7 25 c-6 21 -9 14 -21 -39 -10 -49 -11 -66 -2
-69 8 -2 12 -28 12 -68 0 -61 -1 -64 -24 -64 -20 0 -25 -6 -30 -45 -5 -29 -12
-45 -22 -45 -11 0 -14 -15 -14 -65 0 -61 -4 -70 -31 -67 -4 1 -10 -19 -14 -43
-5 -36 -10 -45 -26 -45 -13 0 -19 7 -20 23 -1 18 -3 16 -9 -8 -4 -16 -8 -39
-8 -50 0 -16 2 -15 8 5 7 21 8 19 9 -17 1 -37 -2 -43 -19 -43 -15 0 -20 -7
-20 -25 0 -20 -5 -25 -25 -25 -18 0 -25 -5 -25 -20 0 -28 -30 -26 -31 3 -1 12
-6 1 -11 -25 -8 -37 -15 -48 -29 -48 -12 0 -19 -7 -19 -20 0 -27 -28 -25 -33
3 -2 12 -5 2 -6 -23 -2 -35 -4 -41 -11 -25 -8 19 -9 19 -9 -2 -1 -13 -4 -22
-8 -22 -27 4 -43 -3 -43 -21 0 -11 -4 -20 -10 -20 -5 0 -10 -21 -11 -47 -1
-39 -2 -43 -9 -23 -8 24 -8 24 -9 3 -1 -13 -7 -23 -16 -23 -8 0 -15 -9 -15
-20 0 -13 -7 -20 -20 -20 -15 0 -20 -7 -20 -26 0 -25 -1 -25 -55 -21 -54 4
-55 4 -56 -22 -1 -25 -2 -25 -8 4 -6 27 -8 25 -14 -22 -6 -44 -11 -53 -27 -53
-13 0 -20 -7 -20 -20 0 -17 -7 -20 -45 -20 -41 0 -45 -2 -45 -25 0 -32 -30
-34 -31 -2 -1 13 -6 4 -12 -20 -9 -41 -11 -43 -48 -43 -35 0 -39 -3 -39 -26 0
-24 -2 -25 -42 -21 -24 2 -35 2 -25 0 9 -2 17 -13 17 -23 0 -15 -9 -19 -47
-22 -41 -3 -50 -7 -68 -35 -13 -20 -28 -32 -42 -33 -13 0 -23 -4 -23 -8 0 -11
-93 -90 -111 -94 -7 -2 -26 -18 -42 -35 -16 -18 -38 -33 -48 -33 -10 0 -19 -7
-19 -15 0 -8 -9 -15 -19 -15 -11 0 -23 -5 -26 -10 -4 -6 -10 -8 -15 -5 -5 3
-14 -1 -22 -8 -7 -7 -20 -12 -28 -12 -8 0 -28 -12 -44 -26 -16 -15 -38 -26
-47 -24 -10 2 -18 -1 -16 -7 1 -7 -15 -15 -36 -18 -21 -4 -43 -12 -50 -19 -14
-14 -187 -15 -187 -1 0 13 -33 13 -47 -1 -8 -8 -17 -7 -34 2 -13 7 -51 17 -84
21 -119 15 -145 20 -145 29 0 5 -12 9 -28 9 -15 0 -37 6 -48 14 -12 8 -44 18
-73 22 -29 4 -55 12 -57 18 -2 6 -21 12 -41 14 -21 1 -41 9 -46 17 -4 8 -16
15 -27 15 -10 0 -25 7 -34 15 -8 8 -24 15 -36 15 -11 0 -23 7 -26 15 -4 8 -16
15 -28 15 -12 0 -28 9 -36 20 -8 11 -22 20 -31 20 -10 0 -31 11 -47 25 -17 14
-36 25 -44 25 -7 0 -19 9 -26 20 -7 11 -17 20 -23 20 -14 0 -81 70 -129 135
-19 25 -81 93 -137 150 -57 58 -103 109 -103 116 0 14 -41 48 -57 49 -7 0 -13
4 -13 8 0 4 -13 16 -30 25 -17 10 -30 27 -30 37 0 11 -9 25 -20 32 -11 7 -20
21 -20 31 0 13 -5 17 -15 13 -15 -5 -39 26 -28 37 3 4 -3 10 -13 14 -25 9 -34
22 -34 53 0 17 -3 21 -9 12 -9 -14 -58 48 -96 122 -11 21 -25 41 -32 43 -7 3
-13 13 -13 23 0 11 -5 22 -10 25 -6 4 -8 10 -6 14 3 4 -10 25 -29 46 -19 21
-35 44 -35 51 0 8 -8 15 -17 15 -17 1 -17 2 0 6 17 4 16 8 -7 38 -15 19 -26
41 -26 49 0 8 -6 13 -12 11 -10 -4 -14 14 -16 67 -2 53 -8 80 -22 100 -11 15
-20 36 -20 48 0 11 -4 20 -10 20 -6 0 -7 23 -4 58 5 48 2 67 -16 108 -13 27
-22 56 -21 64 1 9 -8 42 -19 75 -24 69 -39 225 -22 225 7 0 9 29 5 90 -4 64
-3 90 6 90 6 0 11 18 11 45 0 34 -4 45 -16 45 -13 0 -15 7 -9 43 4 23 11 49
15 57 4 8 5 30 3 48 -3 17 -1 32 4 32 9 0 22 109 26 215 2 30 9 46 31 65 27
25 28 29 27 112 -1 72 4 102 29 180 17 51 35 102 40 113 5 11 14 38 21 60 7
22 19 47 26 56 7 8 13 21 13 27 0 7 4 12 9 12 5 0 12 13 16 30 3 16 14 39 24
52 29 38 91 155 91 172 0 9 5 16 10 16 6 0 10 10 10 23 0 18 -2 19 -10 7 -8
-12 -10 -11 -10 7 0 31 10 53 25 53 9 0 13 11 13 30 -1 36 9 50 22 30 9 -13
10 -13 10 0 0 13 1 13 10 0 5 -8 10 -10 10 -5 0 6 -5 17 -10 25 -7 11 -10 11
-10 2 0 -10 -3 -10 -14 0 -19 18 -11 26 18 21 15 -3 23 -10 20 -18 -3 -7 -1
-16 5 -19 6 -4 7 -14 4 -22 -4 -11 0 -15 13 -14 10 1 21 1 24 0 20 -8 50 -4
54 7 3 7 16 13 30 13 14 0 28 5 31 10 3 6 18 10 33 10 15 0 35 8 44 18 41 43
78 57 78 28 0 -12 7 -13 33 -5 17 5 33 13 35 19 2 5 14 3 27 -6 21 -14 26 -13
56 5 45 28 57 27 51 -4 -5 -27 14 -35 35 -14 6 6 32 12 58 14 31 2 51 9 60 21
13 17 14 16 15 -18 0 -42 6 -47 26 -20 19 25 18 70 -2 74 -11 2 2 13 33 28 44
23 53 25 79 14 16 -7 37 -10 48 -7 28 8 48 11 74 12 12 1 22 6 22 11 0 6 8 27
17 48 9 20 22 59 28 86 11 55 29 70 39 31 4 -14 11 -25 16 -25 6 0 10 -11 10
-25 0 -14 5 -25 10 -25 6 0 10 7 10 15 0 29 19 15 26 -19 4 -24 10 -33 20 -29
9 3 14 -1 14 -12 0 -9 -5 -13 -11 -10 -7 5 -9 -3 -7 -21 l3 -29 82 0 c78 0 83
1 77 20 -3 11 -21 36 -40 55 -26 26 -34 30 -34 17 0 -23 -17 -22 -29 2 -12 22
-5 32 17 24 10 -3 -2 11 -26 32 -43 38 -77 99 -65 118 4 6 0 8 -9 5 -8 -4 -20
2 -27 14 -11 18 -10 18 9 8 12 -6 24 -9 27 -6 3 3 31 -17 61 -44 31 -27 58
-47 61 -45 10 10 -94 107 -131 122 -26 10 -41 25 -52 51 -8 20 -15 29 -15 20
-1 -23 -59 -25 -67 -3 -4 8 -10 12 -16 9 -5 -3 -12 3 -15 15 -3 12 -10 18 -17
14 -12 -8 -40 -15 -71 -17 -15 -1 -21 6 -24 29 -3 26 -4 28 -11 10 -7 -17 -9
-17 -9 -2 -1 9 -5 17 -9 17 -15 0 -32 -49 -32 -93 -1 -33 -3 -38 -11 -25 -5 9
-9 34 -9 55 0 21 -3 61 -8 88 -9 48 -9 48 -11 13 -1 -27 -6 -38 -16 -38 -8 0
-15 -6 -16 -12 0 -7 -4 -4 -9 7 -8 18 -9 18 -10 -5 -1 -24 -1 -24 -15 -6 -8
11 -15 30 -15 43 0 13 -5 23 -10 23 -7 0 -9 -14 -5 -37 5 -27 3 -34 -3 -24 -8
11 -11 9 -15 -10 -4 -22 -5 -21 -12 10 l-8 33 -13 -23 c-12 -22 -13 -22 -15
-4 -1 17 -2 17 -6 3 -5 -18 -23 -25 -23 -9 0 13 -31 84 -35 80 -1 -2 0 -25 4
-51 5 -27 6 -48 5 -48 -2 0 -15 17 -29 37 -18 27 -25 32 -25 19 0 -18 -1 -18
-18 -3 -26 23 -52 22 -52 -3 0 -23 -15 -26 -27 -6 -11 20 -94 39 -86 20 7 -18
-43 -30 -62 -14 -9 8 -15 30 -15 59 0 36 6 54 28 79 25 30 33 34 97 39 95 7
169 5 200 -7 15 -6 50 -10 78 -10 29 -1 79 -8 112 -16 33 -9 69 -16 80 -17 11
-1 26 -7 33 -14 7 -7 24 -13 38 -13 13 0 24 -4 24 -9 0 -5 13 -12 30 -16 16
-4 32 -11 35 -16 4 -5 17 -9 30 -9 13 0 27 -4 30 -10 3 -5 15 -10 25 -10 11 0
34 -6 52 -14 69 -29 104 -39 138 -42 54 -4 56 -5 35 -14 -20 -8 -20 -9 1 -9
11 -1 24 -4 28 -8 3 -4 14 -8 24 -10 22 -5 52 -11 77 -16 11 -2 25 -2 30 2 6
3 19 7 30 9 11 1 26 9 33 16 11 11 8 18 -17 42 -17 16 -31 37 -31 48 0 15 4
14 22 -10 42 -54 58 -66 58 -43 0 6 -15 32 -34 58 -18 25 -37 57 -41 71 -9 31
1 22 31 -27 29 -47 31 -31 3 21 -21 40 -49 74 -49 60 0 -5 -5 -3 -12 4 -16 16
-29 15 -22 -2 6 -17 -12 -31 -21 -16 -3 5 -15 10 -26 10 -10 0 -19 5 -19 11 0
5 4 7 10 4 6 -3 7 1 4 10 -5 12 -9 13 -21 4 -10 -9 -17 -9 -25 -1 -7 7 -31 12
-54 12 -41 0 -72 20 -60 39 3 5 -13 11 -37 14 -23 2 -67 12 -97 21 -59 17
-186 22 -192 7 -1 -5 -28 -2 -58 6 -30 8 -66 12 -80 9 -14 -3 -44 -9 -67 -14
-26 -6 -43 -6 -45 0 -2 5 -12 10 -23 12 -14 2 -21 12 -23 34 -3 28 -7 32 -34
32 -21 0 -44 12 -72 36 -60 51 -64 54 -79 54 -8 0 -22 9 -31 19 -26 28 -12 79
81 294 14 32 23 68 20 79 -3 10 3 34 13 51 25 43 57 133 64 181 3 26 17 52 39
75 43 45 87 121 87 150 0 12 7 24 15 27 8 4 12 10 9 15 -3 6 -2 15 3 22 5 7
16 32 23 57 8 25 28 65 45 90 17 25 51 74 75 110 46 68 89 120 100 120 3 0 41
33 83 73 42 39 116 108 164 152 48 44 116 108 149 142 34 35 66 63 72 63 6 0
18 15 27 33 9 17 37 48 62 67 26 19 62 48 79 64 18 16 44 30 60 32 15 2 30 7
33 11 12 17 63 33 106 33 24 0 46 4 50 9 6 11 7 11 115 14 41 1 81 6 88 10 7
5 36 4 65 -2 37 -8 64 -8 92 0 22 6 58 13 80 16 23 3 54 18 75 34 25 21 41 27
60 23 14 -4 34 -6 45 -6z m-1045 -64 c0 -32 -2 -36 -21 -31 -12 3 -30 1 -40
-6 -10 -6 -22 -8 -26 -3 -4 4 -1 11 7 16 8 4 29 20 45 34 17 14 31 26 33 26 1
0 2 -16 2 -36z m-1067 -1159 c-7 -21 -13 -19 -13 6 0 11 4 18 10 14 5 -3 7
-12 3 -20z m-56 -117 c-3 -8 -6 -5 -6 6 -1 11 2 17 5 13 3 -3 4 -12 1 -19z
m83 -178 c0 -5 -4 -10 -10 -10 -5 0 -10 5 -10 10 0 6 5 10 10 10 6 0 10 -4 10
-10z m3835 -250 c-3 -5 -10 -10 -16 -10 -5 0 -9 5 -9 10 0 6 7 10 16 10 8 0
12 -4 9 -10z m38 -310 c3 -11 1 -23 -4 -26 -5 -3 -9 6 -9 20 0 31 6 34 13 6z
m-4396 -22 c-3 -8 -6 -5 -6 6 -1 11 2 17 5 13 3 -3 4 -12 1 -19z m1599 -285
c24 -32 16 -49 -11 -23 -13 12 -22 27 -19 31 8 13 15 11 30 -8z m-562 -229 c9
-22 8 -24 -9 -18 -8 4 -15 12 -15 20 0 19 16 18 24 -2z m106 -40 c0 -14 -4
-22 -10 -19 -5 3 -10 17 -10 31 0 14 4 22 10 19 6 -3 10 -17 10 -31z m150
-104 c9 -16 8 -20 -5 -20 -8 0 -15 9 -15 20 0 11 2 20 5 20 2 0 9 -9 15 -20z
m-312 -49 c3 -16 -1 -22 -10 -19 -7 3 -15 15 -16 27 -3 16 1 22 10 19 7 -3 15
-15 16 -27z m-278 -63 c0 -7 16 -33 35 -57 19 -24 35 -47 35 -51 0 -11 -43
-21 -50 -11 -3 4 -19 16 -37 26 -41 24 -48 53 -21 82 24 26 38 29 38 11z
m2780 -9 c0 -6 -9 -22 -19 -35 -21 -26 -36 -18 -24 13 10 28 43 45 43 22z
m-70 -19 c0 -11 -4 -20 -10 -20 -5 0 -10 9 -10 20 0 11 5 20 10 20 6 0 10 -9
10 -20z m-2050 -66 c0 -8 -4 -14 -10 -14 -5 0 -10 9 -10 21 0 11 5 17 10 14 6
-3 10 -13 10 -21z m-570 -59 c7 -8 8 -15 2 -15 -5 0 -15 7 -22 15 -7 8 -8 15
-2 15 5 0 15 -7 22 -15z m2560 -46 c0 -21 -16 -26 -23 -6 -6 17 3 38 14 31 5
-3 9 -14 9 -25z m218 -188 c0 -23 -5 -32 -29 -41 -16 -7 -36 -9 -45 -6 -13 5
-9 13 22 41 21 19 41 35 44 35 4 0 7 -13 8 -29z m-29 -65 c-11 -9 -99 -15 -99
-6 0 6 23 10 52 10 28 0 49 -2 47 -4z m2578 -598 c-3 -7 -5 -2 -5 12 0 14 2
19 5 13 2 -7 2 -19 0 -25z m-280 -290 c-3 -7 -5 -2 -5 12 0 14 2 19 5 13 2 -7
2 -19 0 -25z m-1393 -640 c-9 -21 -20 -38 -24 -38 -3 0 -16 11 -28 25 -23 26
-29 55 -12 55 6 0 10 7 10 15 0 8 15 21 33 28 32 14 32 13 35 -16 2 -17 -4
-48 -14 -69z m1033 -1210 c-3 -8 -6 -5 -6 6 -1 11 2 17 5 13 3 -3 4 -12 1 -19z
m-2490 -400 c-3 -7 -5 -2 -5 12 0 14 2 19 5 13 2 -7 2 -19 0 -25z m-3411 -277
c-3 -4 -10 -21 -16 -36 -6 -15 -13 -25 -16 -22 -6 6 23 67 32 67 3 0 3 -4 0
-9z m-36 -76 c0 -19 -33 -78 -37 -67 -3 8 0 19 6 25 6 6 11 19 11 29 0 10 5
18 10 18 6 0 10 -2 10 -5z m-59 -122 c-8 -15 -10 -15 -11 -2 0 17 10 32 18 25
2 -3 -1 -13 -7 -23z m559 -574 c0 -6 -4 -7 -10 -4 -5 3 -10 11 -10 16 0 6 5 7
10 4 6 -3 10 -11 10 -16z m764 -115 c3 -8 2 -12 -4 -9 -6 3 -10 10 -10 16 0
14 7 11 14 -7z m136 -32 c0 -23 2 -24 43 -19 32 5 37 4 19 -3 -33 -14 -25 -46
10 -43 19 1 27 -4 32 -20 3 -12 1 -24 -5 -25 -5 -2 8 -24 31 -48 22 -24 40
-49 40 -55 0 -7 8 -21 17 -31 14 -16 15 -23 5 -39 -11 -16 -9 -19 8 -19 11 0
20 -7 20 -15 0 -8 -5 -15 -12 -15 -14 0 -1 -14 15 -16 7 0 20 -2 30 -2 9 -1
17 -9 17 -17 0 -8 9 -15 20 -15 11 0 20 -4 20 -10 0 -5 9 -10 19 -10 11 0 23
-4 26 -10 3 -5 15 -10 26 -10 14 0 19 -7 19 -30 0 -22 5 -30 18 -30 10 0 22
-3 26 -7 9 -9 31 -14 89 -20 26 -3 47 -9 47 -14 0 -5 11 -9 25 -9 14 0 25 5
25 10 0 6 29 10 66 10 36 0 63 -4 60 -9 -10 -16 5 -41 25 -41 17 0 19 -8 19
-65 l0 -65 -45 0 c-38 0 -45 -3 -45 -20 0 -14 -7 -20 -21 -20 -21 0 -22 -3
-16 -72 3 -40 3 -67 1 -60 -3 6 -10 12 -15 12 -14 0 -11 -57 4 -64 6 -4 -6 -4
-28 -2 -43 5 -27 -6 30 -20 19 -5 24 -9 14 -11 -9 -2 -53 5 -97 16 -44 12 -94
21 -111 21 -24 0 -42 11 -75 45 -25 25 -47 45 -50 45 -3 0 -6 -9 -6 -21 0 -17
-5 -20 -27 -15 -16 3 -47 8 -70 11 -24 4 -43 11 -43 15 0 11 85 24 102 15 7
-3 5 0 -4 8 -13 10 -15 16 -6 25 9 9 9 15 0 24 -7 7 -12 24 -12 39 0 15 -4 29
-9 31 -5 2 -20 21 -35 42 -14 21 -27 35 -27 30 -2 -11 -17 67 -23 115 -3 19
-9 37 -14 40 -5 3 -26 35 -46 71 -21 36 -44 69 -52 73 -8 5 -12 12 -9 18 4 5
-1 9 -9 9 -20 0 -21 16 -1 24 8 3 15 9 15 14 0 16 -37 52 -54 52 -9 0 -16 7
-16 15 0 8 -6 14 -12 13 -7 -2 -14 8 -16 22 -2 14 -8 30 -13 36 -4 5 -6 20 -2
32 6 23 -12 31 -20 10 -3 -7 -3 2 0 20 4 21 2 32 -6 32 -8 0 -10 8 -6 20 4 11
2 20 -4 20 -6 0 -11 6 -11 14 0 11 9 11 45 3 38 -9 45 -14 45 -35z m-100 -12
c0 -5 -5 -10 -11 -10 -5 0 -7 5 -4 10 3 6 8 10 11 10 2 0 4 -4 4 -10z m5260
-477 c-11 -17 -11 -17 -6 0 3 10 7 26 7 35 1 15 2 15 6 0 2 -10 -1 -25 -7 -35z
m-4990 -3 c0 -5 -2 -10 -4 -10 -3 0 -8 5 -11 10 -3 6 -1 10 4 10 6 0 11 -4 11
-10z m1880 -130 c-6 -11 -16 -20 -22 -20 -6 0 -3 9 7 20 10 11 20 20 22 20 2
0 -1 -9 -7 -20z m-109 -73 c-10 -9 -11 -8 -5 6 3 10 9 15 12 12 3 -3 0 -11 -7
-18z m4089 -36 c0 -11 -4 -23 -10 -26 -6 -4 -10 5 -10 19 0 14 5 26 10 26 6 0
10 -9 10 -19z m-4189 -24 c-8 -8 -11 -7 -11 4 0 20 13 34 18 19 3 -7 -1 -17
-7 -23z m-1681 -2 c0 -8 -7 -15 -15 -15 -8 0 -15 7 -15 15 0 8 7 15 15 15 8 0
15 -7 15 -15z m1587 -69 c-21 -22 -30 -6 -10 16 10 11 19 15 21 9 2 -6 -3 -17
-11 -25z m4240 -37 c-3 -10 -1 -22 4 -25 10 -6 13 -44 3 -44 -25 0 -47 74 -28
93 12 12 26 -5 21 -24z m-4339 -1 c-8 -12 -21 -24 -29 -26 -8 -3 -3 7 10 22
30 32 39 34 19 4z m-94 -20 c-7 -17 -64 -62 -70 -56 -6 6 26 42 51 56 25 14
25 14 19 0z m-114 -45 c-1 -11 -80 -66 -87 -60 -10 11 56 66 80 67 4 0 7 -3 7
-7z m240 3 c0 -2 -7 -7 -16 -10 -8 -3 -12 -2 -9 4 6 10 25 14 25 6z m3366 -28
c-18 -26 -22 -17 -5 14 6 11 13 17 16 15 3 -3 -2 -16 -11 -29z m-6726 -2 c0
-2 -7 -9 -15 -16 -13 -11 -14 -10 -9 4 5 14 24 23 24 12z m2990 -31 c-7 -8
-18 -15 -24 -15 -6 0 -22 -9 -36 -20 -38 -30 -61 -24 -25 6 30 25 87 54 94 48
2 -2 -2 -10 -9 -19z m-420 -5 c0 -5 -4 -10 -10 -10 -5 0 -10 5 -10 10 0 6 5
10 10 10 6 0 10 -4 10 -10z m274 -25 c-4 -9 -19 -15 -40 -15 -43 0 -43 7 -1
19 45 13 47 13 41 -4z m4872 -64 c-15 -14 -16 -14 -16 0 0 9 6 31 13 50 l12
34 3 -34 c2 -21 -2 -40 -12 -50z m-4606 35 c0 -2 -7 -6 -15 -10 -8 -3 -15 -1
-15 4 0 6 7 10 15 10 8 0 15 -2 15 -4z m-110 -25 c0 -5 -7 -11 -15 -15 -15 -5
-20 5 -8 17 9 10 23 9 23 -2z m4769 -23 c0 -18 -4 -42 -8 -53 -7 -17 -8 -17
-13 8 -6 33 1 77 13 77 5 0 9 -15 8 -32z m-79 -36 c0 -5 -7 -17 -16 -28 -8
-10 -14 -14 -11 -9 2 6 7 18 10 28 7 17 17 23 17 9z m1 -155 c-8 -8 -11 -1
-11 24 0 46 14 60 18 19 2 -18 -1 -37 -7 -43z m26 -14 c-3 -10 -5 -4 -5 12 0
17 2 24 5 18 2 -7 2 -21 0 -30z m23 -103 c0 -11 -4 -20 -10 -20 -5 0 -10 9
-10 20 0 11 5 20 10 20 6 0 10 -9 10 -20z m20 -50 c0 -5 -4 -10 -10 -10 -5 0
-10 5 -10 10 0 6 5 10 10 10 6 0 10 -4 10 -10z m-7 -45 c4 -8 2 -17 -3 -20 -6
-4 -10 3 -10 14 0 25 6 27 13 6z m67 -20 c0 -13 -4 -27 -10 -30 -6 -4 -10 8
-10 30 0 22 4 34 10 30 6 -3 10 -17 10 -30z m56 -64 c15 -59 10 -78 -30 -104
-17 -12 -27 -13 -32 -6 -4 6 -3 14 2 18 25 18 37 62 31 119 -6 56 4 100 11 50
2 -12 10 -47 18 -77z m-176 -2 c0 -43 -4 -59 -12 -57 -17 6 -10 118 8 118 2 0
4 -27 4 -61z m-8879 -201 c35 -29 93 -82 129 -117 36 -34 85 -79 110 -100 56
-45 79 -72 80 -91 0 -14 -44 -70 -56 -70 -12 0 -70 34 -84 49 -8 9 -46 43 -85
75 -102 84 -255 236 -255 251 0 20 49 55 75 55 13 0 51 -23 86 -52z m9119 -28
c-6 -11 -8 -25 -5 -30 3 -6 2 -10 -4 -10 -17 0 -22 36 -9 64 9 22 13 24 20 12
5 -9 4 -24 -2 -36z m-35 21 c3 -5 1 -12 -5 -16 -5 -3 -10 1 -10 9 0 18 6 21
15 7z"/>
<path d="M4573 11425 c-3 -9 -3 -18 -1 -21 3 -3 8 4 11 16 6 23 -1 27 -10 5z"/>
<path d="M7355 9640 c3 -5 8 -10 11 -10 2 0 4 5 4 10 0 6 -5 10 -11 10 -5 0
-7 -4 -4 -10z"/>
<path d="M7672 8805 c0 -16 2 -22 5 -12 2 9 2 23 0 30 -3 6 -5 -1 -5 -18z"/>
<path d="M4990 7941 c0 -6 4 -13 10 -16 6 -3 7 1 4 9 -7 18 -14 21 -14 7z"/>
<path d="M5076 7870 c7 -28 12 -35 18 -29 2 2 -2 15 -10 29 l-15 25 7 -25z"/>
<path d="M5051 7830 c0 -14 4 -32 9 -40 8 -12 10 -12 9 5 0 11 -4 29 -9 40 -8
18 -9 18 -9 -5z"/>
<path d="M7700 7750 c0 -11 5 -20 10 -20 6 0 10 9 10 20 0 11 -4 20 -10 20 -5
0 -10 -9 -10 -20z"/>
<path d="M6426 7601 c-3 -5 3 -11 14 -14 11 -3 23 -1 26 4 3 5 9 7 14 4 5 -3
11 -1 15 5 4 6 -8 10 -29 10 -19 0 -37 -4 -40 -9z"/>
<path d="M4600 7300 c0 -5 9 -10 20 -10 11 0 20 5 20 10 0 6 -9 10 -20 10 -11
0 -20 -4 -20 -10z"/>
<path d="M4560 7290 c0 -5 7 -10 15 -10 8 0 15 5 15 10 0 6 -7 10 -15 10 -8 0
-15 -4 -15 -10z"/>
<path d="M4398 7239 c6 -7 12 -26 12 -43 0 -23 3 -27 12 -18 15 15 0 63 -22
70 -12 4 -13 2 -2 -9z"/>
<path d="M4270 7183 c1 -38 4 -53 9 -43 17 28 17 100 1 100 -6 0 -10 -26 -10
-57z"/>
<path d="M6455 6980 c-3 -5 -1 -10 4 -10 6 0 11 5 11 10 0 6 -2 10 -4 10 -3 0
-8 -4 -11 -10z"/>
<path d="M6624 6936 c-3 -14 -1 -33 5 -43 10 -17 10 -17 11 2 0 11 3 30 6 43
4 13 2 22 -5 22 -6 0 -13 -11 -17 -24z"/>
<path d="M4855 6022 c-18 -2 -44 -19 -67 -43 -21 -21 -42 -39 -47 -39 -10 0
-41 -39 -41 -52 0 -4 15 -23 33 -42 65 -68 179 -119 205 -92 10 10 11 19 5 30
-11 20 -5 76 8 76 5 0 9 -7 9 -15 0 -8 9 -15 19 -15 11 0 27 -7 36 -17 15 -14
53 -36 158 -91 16 -8 31 -20 34 -28 3 -8 10 -14 16 -14 6 0 32 -23 58 -52 49
-54 78 -60 80 -16 0 22 1 22 9 3 7 -17 9 -17 9 -2 1 9 6 17 11 17 6 0 10 11
10 24 0 22 5 25 53 30 28 4 69 9 90 12 25 4 37 2 37 -6 0 -6 16 -31 35 -55 25
-29 32 -45 23 -48 -7 -2 -10 -7 -7 -10 5 -7 49 5 107 29 18 8 50 14 71 14 21
0 44 6 50 14 7 8 23 17 36 20 14 4 25 11 25 16 0 6 5 10 10 10 6 0 30 15 54
33 53 39 71 82 61 145 -4 26 -10 41 -12 35 -3 -7 -14 -13 -25 -13 -23 0 -48
-23 -48 -44 0 -9 -18 -34 -39 -56 -43 -45 -43 -45 -56 35 -4 25 -19 53 -40 75
-18 19 -36 45 -40 58 -3 12 -11 22 -16 22 -5 0 -9 6 -9 14 0 15 -47 28 -55 15
-3 -4 -20 -11 -38 -14 -17 -4 -51 -18 -75 -31 -23 -13 -48 -24 -54 -24 -6 0
-31 -16 -54 -36 -24 -19 -48 -33 -53 -30 -5 3 -11 -3 -14 -14 -6 -24 -43 -26
-130 -9 -39 8 -58 17 -62 30 -4 11 -13 16 -26 14 -11 -2 -19 1 -18 8 3 27 -2
37 -20 37 -10 0 -21 7 -25 15 -3 8 -15 15 -26 15 -11 0 -20 7 -20 15 0 8 -7
15 -15 15 -8 0 -15 6 -15 13 0 8 -3 7 -10 -3 -8 -12 -12 -11 -32 6 -30 28 -57
28 -51 0 3 -13 1 -17 -4 -10 -11 16 -72 30 -108 26z m160 -50 c-3 -3 -11 0
-18 7 -9 10 -8 11 6 5 10 -3 15 -9 12 -12z m-85 -87 c0 -27 -9 -32 -28 -13
-18 18 -14 38 8 38 15 0 20 -7 20 -25z m836 -96 c18 -20 18 -21 -6 -39 -27
-20 -40 -12 -40 26 0 39 18 44 46 13z m-60 -66 c-7 -7 -76 9 -76 17 0 15 45
16 63 1 9 -8 15 -16 13 -18z m-36 -12 c0 -6 -9 -9 -20 -8 -11 1 -20 5 -20 9 0
4 9 8 20 8 11 0 20 -4 20 -9z"/>
<path d="M7242 5340 c0 -14 2 -19 5 -12 2 6 2 18 0 25 -3 6 -5 1 -5 -13z"/>
<path d="M4155 5329 c-34 -10 -70 -45 -52 -52 9 -3 7 -9 -4 -18 -18 -15 -39
-70 -39 -100 0 -16 8 -18 53 -17 60 1 87 -11 171 -76 33 -25 63 -46 68 -46 4
0 8 -6 8 -12 0 -7 21 -27 48 -44 91 -59 132 -84 139 -84 5 0 26 -16 48 -35 22
-19 45 -35 51 -35 7 0 14 -7 18 -15 3 -8 12 -15 20 -15 7 0 16 -7 19 -14 3 -8
22 -18 41 -22 20 -3 36 -11 36 -18 1 -13 68 -46 94 -46 9 0 19 -7 22 -15 8
-20 33 -19 41 1 5 12 7 13 14 3 5 -8 3 -17 -4 -21 -7 -5 -1 -8 15 -8 15 0 36
10 48 23 l22 22 -7 -40 c-6 -38 -5 -39 8 -16 9 15 17 20 21 12 4 -6 4 -15 1
-21 -3 -5 -1 -10 4 -10 6 0 11 7 11 15 0 8 5 15 10 15 6 0 10 -8 8 -17 -4 -20
60 -37 79 -22 8 7 13 4 18 -10 4 -12 12 -18 21 -14 8 3 14 -1 14 -10 0 -12 26
-16 143 -22 133 -7 154 -5 278 20 74 15 136 30 139 35 3 4 23 11 45 15 43 7
158 60 187 85 42 37 102 70 128 70 10 0 22 5 26 11 4 7 20 8 41 4 75 -14 91
-1 126 102 14 40 14 42 -15 66 -38 34 -98 44 -132 22 -20 -14 -26 -14 -26 -4
0 12 -2 12 -9 1 -9 -15 -53 -12 -146 7 -27 5 -76 13 -108 16 -32 4 -56 9 -53
13 6 5 -90 35 -154 48 -14 3 -32 8 -40 11 -26 10 -62 13 -180 18 -213 8 -298
21 -425 63 l-120 41 -280 11 c-290 12 -357 20 -412 48 -38 19 -40 25 -13 54
11 12 20 25 20 30 0 9 -43 8 -85 -3z m5 -169 c0 -5 -4 -10 -10 -10 -5 0 -10 5
-10 10 0 6 5 10 10 10 6 0 10 -4 10 -10z m353 -130 c9 -11 14 -20 11 -20 -13
0 -44 21 -44 30 0 16 14 11 33 -10z m61 0 c19 -7 26 -17 26 -37 0 -27 -15 -23
-22 7 -2 8 -16 20 -33 27 -17 6 -23 12 -13 12 9 1 28 -3 42 -9z m586 0 c0 -5
-7 -7 -15 -4 -8 4 -15 8 -15 10 0 2 7 4 15 4 8 0 15 -4 15 -10z m-468 -71 c-4
-53 -22 -69 -22 -19 0 19 -5 30 -14 30 -12 0 -26 20 -26 39 0 4 15 5 33 3 32
-4 32 -4 29 -53z m88 21 c0 -5 -8 -10 -19 -10 -14 0 -17 -6 -13 -25 4 -21 10
-25 41 -25 20 0 42 -5 49 -12 9 -9 12 -8 12 4 0 9 7 19 16 22 12 4 14 1 9 -14
-5 -17 -2 -20 21 -20 15 0 35 7 43 14 28 26 41 6 29 -42 -9 -38 -28 -58 -28
-30 0 6 -9 3 -20 -7 -20 -18 -20 -17 -20 9 0 23 -3 26 -19 21 -13 -4 -27 1
-40 14 -20 20 -21 20 -21 2 0 -11 -4 -23 -10 -26 -5 -3 -10 -16 -11 -28 -1
-12 -5 -2 -10 22 -9 48 -21 61 -49 54 -24 -6 -50 64 -29 78 19 12 69 11 69 -1z
m724 -81 c16 -15 3 -17 -77 -11 -83 5 -92 18 -17 24 50 5 80 0 94 -13z m-196
0 c-2 -6 -7 -10 -11 -10 -4 1 -14 1 -22 1 -8 0 -15 5 -15 10 0 6 12 10 26 10
14 0 24 -5 22 -11z m-312 -91 c0 -40 -2 -62 -4 -48 -2 14 -8 28 -14 31 -6 4
-5 21 3 48 7 22 13 41 14 41 1 0 2 -33 1 -72z m52 29 c3 -31 0 -37 -17 -37
-23 0 -29 13 -23 52 7 44 36 33 40 -15z m76 -35 c-4 -9 -8 -21 -8 -27 -1 -5
-5 -25 -10 -44 -9 -39 -25 -26 -27 24 -1 24 -3 25 -6 8 -2 -13 -9 -23 -15 -23
-6 0 -7 8 -3 18 3 9 9 29 12 44 3 15 9 25 14 22 5 -3 17 -1 26 5 21 11 29 -1
17 -27z m32 -26 c-7 -46 -23 -72 -20 -33 3 37 16 88 22 83 2 -3 1 -25 -2 -50z
m78 43 c7 -6 -17 -74 -26 -77 -22 -6 -32 -2 -21 9 7 7 9 26 6 45 -5 31 -3 34
15 31 12 -2 24 -5 26 -8z m166 -9 c7 -13 7 -20 1 -20 -6 0 -15 9 -21 20 -7 13
-7 20 -1 20 6 0 15 -9 21 -20z m190 10 c0 -5 -2 -10 -4 -10 -3 0 -8 5 -11 10
-3 6 -1 10 4 10 6 0 11 -4 11 -10z m-305 -78 c-5 -29 -11 -47 -14 -40 -2 7
-11 22 -20 32 -15 18 -15 19 2 13 11 -4 17 -1 17 7 0 8 -5 16 -12 18 -17 6 -3
24 19 24 16 0 17 -5 8 -54z m78 43 c-3 -9 -8 -14 -10 -11 -3 3 -2 9 2 15 9 16
15 13 8 -4z m225 -47 l-15 -43 2 50 c3 62 3 61 16 48 8 -8 7 -23 -3 -55z
m-142 25 c-7 -7 -26 7 -26 19 0 6 6 6 15 -2 9 -7 13 -15 11 -17z m-122 -28
c-4 -8 -8 -15 -10 -15 -2 0 -4 7 -4 15 0 8 4 15 10 15 5 0 7 -7 4 -15z m-138
-51 c-3 -8 -11 -14 -18 -13 -10 0 -10 2 0 6 6 2 13 17 13 31 1 18 3 21 6 9 3
-10 2 -25 -1 -33z m-106 -9 c0 -8 -7 -15 -15 -15 -16 0 -20 12 -8 23 11 12 23
8 23 -8z m-94 -22 c-10 -10 -19 5 -10 18 6 11 8 11 12 0 2 -7 1 -15 -2 -18z
m264 12 c0 -8 -4 -15 -10 -15 -5 0 -10 7 -10 15 0 8 5 15 10 15 6 0 10 -7 10
-15z m30 0 c10 -12 10 -15 -4 -15 -9 0 -16 7 -16 15 0 8 2 15 4 15 2 0 9 -7
16 -15z m-149 -28 c-1 -12 -15 -9 -19 4 -3 6 1 10 8 8 6 -3 11 -8 11 -12z
m110 -30 c-10 -9 -11 -8 -5 6 3 10 9 15 12 12 3 -3 0 -11 -7 -18z"/>
<path d="M5025 4847 c-4 -10 -5 -21 -1 -24 10 -10 18 4 13 24 -4 17 -4 17 -12
0z"/>
<path d="M7191 5254 c0 -11 3 -14 6 -6 3 7 2 16 -1 19 -3 4 -6 -2 -5 -13z"/>
<path d="M7211 5254 c0 -11 3 -14 6 -6 3 7 2 16 -1 19 -3 4 -6 -2 -5 -13z"/>
<path d="M6951 4808 c1 -13 5 -34 9 -48 7 -20 8 -16 9 23 1 26 -3 47 -9 47 -5
0 -10 -10 -9 -22z"/>
<path d="M6932 4720 c0 -14 2 -19 5 -12 2 6 2 18 0 25 -3 6 -5 1 -5 -13z"/>
<path d="M6902 4545 c0 -16 2 -22 5 -12 2 9 2 23 0 30 -3 6 -5 -1 -5 -18z"/>
<path d="M6882 4540 c0 -14 2 -19 5 -12 2 6 2 18 0 25 -3 6 -5 1 -5 -13z"/>
<path d="M6202 3780 c0 -14 2 -19 5 -12 2 6 2 18 0 25 -3 6 -5 1 -5 -13z"/>
<path d="M4380 2340 c0 -5 9 -10 20 -10 11 0 20 5 20 10 0 6 -9 10 -20 10 -11
0 -20 -4 -20 -10z"/>
<path d="M4961 1954 c0 -11 3 -14 6 -6 3 7 2 16 -1 19 -3 4 -6 -2 -5 -13z"/>
<path d="M4901 1825 c-1 -25 15 -52 26 -42 4 5 2 11 -4 15 -6 4 -13 16 -16 27
l-5 20 -1 -20z"/>
<path d="M4740 1740 c0 -6 7 -10 15 -10 8 0 15 2 15 4 0 2 -7 6 -15 10 -8 3
-15 1 -15 -4z"/>
<path d="M9422 8020 c0 -14 2 -19 5 -12 2 6 2 18 0 25 -3 6 -5 1 -5 -13z"/>
<path d="M10577 3727 c-3 -8 -1 -20 4 -28 6 -10 9 -7 9 14 0 29 -5 35 -13 14z"/>
<path d="M11230 3698 c0 -24 -3 -29 -11 -21 -15 15 -74 -41 -65 -62 5 -13 8
-13 26 2 11 10 20 24 20 31 0 9 7 12 20 9 17 -4 20 0 20 34 0 21 -2 39 -5 39
-3 0 -5 -14 -5 -32z"/>
<path d="M11083 3579 c-7 -7 -13 -17 -13 -23 0 -5 -7 -18 -17 -28 -10 -12 -12
-18 -4 -18 7 0 9 -4 6 -10 -12 -19 12 -10 31 13 15 15 19 30 15 50 -5 23 -8
26 -18 16z"/>
<path d="M11111 3564 c0 -11 3 -14 6 -6 3 7 2 16 -1 19 -3 4 -6 -2 -5 -13z"/>
<path d="M10425 1865 c-5 -11 -10 -24 -13 -30 -3 -5 3 -3 13 7 9 9 15 22 12
30 -3 9 -7 7 -12 -7z"/>
<path d="M10431 1735 c-6 -24 -6 -46 1 -65 11 -34 33 -30 22 3 -4 12 -6 39 -6
60 2 47 -4 47 -17 2z"/>
<path d="M10535 1640 c-3 -5 -1 -10 4 -10 6 0 11 5 11 10 0 6 -2 10 -4 10 -3
0 -8 -4 -11 -10z"/>
<path d="M10532 1600 c0 -14 2 -19 5 -12 2 6 2 18 0 25 -3 6 -5 1 -5 -13z"/>
<path d="M10486 1535 c-3 -10 -2 -23 4 -29 15 -15 24 1 13 26 -9 20 -10 20
-17 3z"/>
<path d="M10492 1465 c0 -16 2 -22 5 -12 2 9 2 23 0 30 -3 6 -5 -1 -5 -18z"/>
<path d="M10688 878 c-2 -7 -1 -26 3 -43 6 -28 7 -26 8 13 1 42 -3 53 -11 30z"/>
<path d="M10711 774 c0 -11 3 -14 6 -6 3 7 2 16 -1 19 -3 4 -6 -2 -5 -13z"/>
<path d="M10757 653 c-11 -10 -8 -53 3 -53 6 0 10 14 10 30 0 31 -2 35 -13 23z"/>
</g>
</svg>
